<?xml version="1.0" encoding="utf-8"?>
<!-- Generator: Adobe Illustrator 21.1.0, SVG Export Plug-In . SVG Version: 6.00 Build 0)  -->
<svg version="1.1" id="Layer_1" xmlns="http://www.w3.org/2000/svg" xmlns:xlink="http://www.w3.org/1999/xlink" x="0px" y="0px"
	 viewBox="0 0 714 97" style="enable-background:new 0 0 714 97;" xml:space="preserve">
<metadata><?xpacket begin="﻿" id="W5M0MpCehiHzreSzNTczkc9d"?>
<x:xmpmeta xmlns:x="adobe:ns:meta/" x:xmptk="Adobe XMP Core 5.6-c137 79.159768, 2016/08/11-13:24:42        ">
   <rdf:RDF xmlns:rdf="http://www.w3.org/1999/02/22-rdf-syntax-ns#">
      <rdf:Description rdf:about=""
            xmlns:ExtensisFontSense="http://www.extensis.com/meta/FontSense/">
         <ExtensisFontSense:slug>
            <rdf:Bag>
               <rdf:li>
                  <rdf:Description>
                     <ExtensisFontSense:Family>Sackers Gothic Light</ExtensisFontSense:Family>
                     <ExtensisFontSense:Version>001.000</ExtensisFontSense:Version>
                     <ExtensisFontSense:OutlineFileSize>0</ExtensisFontSense:OutlineFileSize>
                     <ExtensisFontSense:KerningChecksum>0</ExtensisFontSense:KerningChecksum>
                     <ExtensisFontSense:Foundry>Adobe Systems</ExtensisFontSense:Foundry>
                     <ExtensisFontSense:FontKind>OpenType - TT</ExtensisFontSense:FontKind>
                     <ExtensisFontSense:Checksum>4045196250</ExtensisFontSense:Checksum>
                     <ExtensisFontSense:PostScriptName>ATSackersGothic-Medium</ExtensisFontSense:PostScriptName>
                     <ExtensisFontSense:FontSense_1.2_Checksum>4045196250</ExtensisFontSense:FontSense_1.2_Checksum>
                  </rdf:Description>
               </rdf:li>
               <rdf:li>
                  <rdf:Description>
                     <ExtensisFontSense:Family>EB Garamond 12 All SC</ExtensisFontSense:Family>
                     <ExtensisFontSense:Version>0.016</ExtensisFontSense:Version>
                     <ExtensisFontSense:OutlineFileSize>0</ExtensisFontSense:OutlineFileSize>
                     <ExtensisFontSense:KerningChecksum>0</ExtensisFontSense:KerningChecksum>
                     <ExtensisFontSense:Foundry>--</ExtensisFontSense:Foundry>
                     <ExtensisFontSense:FontKind>OpenType - TT</ExtensisFontSense:FontKind>
                     <ExtensisFontSense:Checksum>3934935198</ExtensisFontSense:Checksum>
                     <ExtensisFontSense:PostScriptName>EBGaramond12-AllSC</ExtensisFontSense:PostScriptName>
                     <ExtensisFontSense:FontSense_1.2_Checksum>3934935198</ExtensisFontSense:FontSense_1.2_Checksum>
                  </rdf:Description>
               </rdf:li>
            </rdf:Bag>
         </ExtensisFontSense:slug>
      </rdf:Description>
   </rdf:RDF>
</x:xmpmeta>
                                                                                                    
                                                                                                    
                                                                                                    
                                                                                                    
                                                                                                    
                                                                                                    
                                                                                                    
                                                                                                    
                                                                                                    
                                                                                                    
                                                                                                    
                                                                                                    
                                                                                                    
                                                                                                    
                                                                                                    
                                                                                                    
                                                                                                    
                                                                                                    
                                                                                                    
                                                                                                    
                           
<?xpacket end="w"?></metadata>
<style type="text/css">
	.st0{fill:#FFFFFF;}
	.st1{fill:#F5F3F4;}
</style>
<g>
	<path id="SVGID_x5F_1_x5F_" style="fill:none;" d="M630.6,325.4c56.9,18.3,88,79.8,69.5,137.2c-18.5,57.5-79.6,89.2-136.5,70.9
		c-56.9-18.3-88-79.8-69.5-137.2C512.6,338.9,573.7,307.1,630.6,325.4z"/>
	<text>	<textPath  xlink:href="#SVGID_x5F_1_x5F_" startOffset="96.0207%">
<tspan  class="st0" style="font-family:'ATSackersGothic-Medium'; font-size:25.0139px; letter-spacing:415.9;"> </tspan><tspan  class="st0" style="font-family:'ATSackersGothic-Medium'; font-size:21.8666px; letter-spacing:415.9;">personal bespoke travel</tspan>	</textPath>
</text>
	<text transform="matrix(1 0 0 1 -8.9912 435.4863)"><tspan x="0" y="0" class="st0" style="font-family:'EBGaramond12-AllSC'; font-size:86.8596px; letter-spacing:10;">DESTI</tspan><tspan x="236.4" y="0" class="st0" style="font-family:'EBGaramond12-AllSC'; font-size:86.8596px; letter-spacing:6;">NA</tspan><tspan x="353.3" y="0" class="st0" style="font-family:'EBGaramond12-AllSC'; font-size:86.8596px; letter-spacing:8;">TI</tspan><tspan x="441" y="0" class="st0" style="font-family:'EBGaramond12-AllSC'; font-size:86.8596px; letter-spacing:6;">O</tspan><tspan x="500.5" y="0" class="st0" style="font-family:'EBGaramond12-AllSC'; font-size:86.8596px; letter-spacing:10;">NS</tspan></text>
	
		<text transform="matrix(1 0 0 1 -4.7998 490.9961)" class="st0" style="font-family:'ATSackersGothic-Medium'; font-size:23.987px; letter-spacing:4;">by miranda plunkett</text>
</g>
<g>
	<path class="st0" d="M54.9,43.6c141.7,2,462.1-1.8,602.1-2.2"/>
	<g>
		<g>
			<path class="st1" d="M643,32.5c-5.1,0.3-9.8,0.8-13.8,1.4c-21.9-1.7-32.9,2.6-55.5,1.9C553.6,36,539.3,37,520,36.2
				c-6.3,4.1-37.6-0.4-51.9,2.3c-9.6,0.6-14.8,2.2-7.5,2.8c-13.3,0.3-9.9-1.5-21-0.7l3.7-1.4c-3.7-0.3-7.7-1-12.5-0.7l-5.4,1.4
				c-13.2-1.4-20.7,1.3-35,0.5c9.3,0.9-4.3,0.8-3.2,1.9c-2.2-0.5-10.8-0.7-7.9-1.2c-12.1-0.3-23.3,2.1-30.2,0.2l-4.4,0.6
				c-7.6,0.9-13.6-0.1-20.6-0.4l-1,0.8c-4.6,0.5-13.1,0.4-17.1-0.3c-12.2-0.4-27.3,1.4-39.9,2.4c-12.5-0.7-7,1.4-18.3,2
				c-7.2-0.5-19.6,0.7-23.9-0.4c9.9-0.1,11.3-2.2,21.8-1.8c-4-0.7,17.7-0.8,8.4-1.8c-20.2,1.8-45.1,0.3-63.6,2.1
				c1.4-2.1-23-1.2-31.1-0.9l-0.5-0.6c-7-0.3-12.1-0.4-23.2,0.2c-6.6,0.1-13.2,0.2-19.6,0.1c-6.3-0.1-12.4-0.3-18-0.9
				c-16.5-1.5-36.1,0.5-43.2,1.8c10.1,1,19.9,0.8,29,0.8c9.1-0.1,17.6,0.1,25.1,1.8C95,46.2,94,47,83.3,47.9l5.7,0.7l-4.6,0.4
				c2.4,0.7-3.8,1.3-3.1,2.1L98,51.2c-9-0.7-3.1-1.5-0.4-2.2l8.6,0.3c-2-0.4-7.3-0.7-1-1.1c3.5,0.2,8.1-0.2,12,0.3l-6.9,1.5
				c10.6-1.2,18.5,1.9,29.1,0.7l3.2,1.7l10-0.1l-1.1,0.6l12,0.2c6.5-0.3,7.4-1,8.6-1.6c5-0.1,9.8-0.3,11.8,0l-5.8,1l5.3,0.3
				c-3.7-0.3,4.5-0.6,5.8-1c12,0.2,8.5,0.1,16,0.9c7.8-0.7,17.3,0.5,17.7-0.8c14.2,0.7,29.3,0.7,42.7,0.6l5.9-0.8
				c16,0.9,23.2-0.4,39.8-0.7l-1.3,0.4l9.1-1.1c12.5,0.7,17.4-1.2,31.9-0.2c15.6,0.5,22.7-1,27.7-2.8c7.6-0.9,17.1,0.2,23.9,0.3
				l-4.4,0.6l5.7,0.6c9.8-0.4,10.3,0.2,23.1-0.6c17.5,0.6,14.8-2.2,22.2-3.2l16.7,1.6l-0.4-0.4c9.9-2.1,7.6-0.9,31-1.2l-1.1-1.1
				c7.9,1.2,11.3-0.6,21.4-0.6c5-0.1,20.2,1.7,28.9,0.2c17.8,1,26.4-2.4,41.7-2.3c9.2,0.8,15.7-1.2,17.5,0.6l-1.7,0l3.4,1.8l0.4-1.3
				c5.5,0.5,13.5,0,18.2,1.4l12.8-2.5c-3.1,0.2-6.6,0.1-10.1,0l0.4,0.4c-3.3,0.1-11.4,0.4-15.3-0.1l4.6-0.5
				c-5.3-0.3-0.9-0.9,0.6-1.1c10.7,0.6,7.8-0.7,15.9-1c1.8,0.2,5.3,0.3,4,0.7c4.8-0.3,17.5,0.7,17.9-0.7c0.4,0.1,0.6,0.1,1,0.2
				C655.4,36.9,650,34.6,643,32.5z"/>
		</g>
	</g>
</g>
</svg>
